<svg width="16" height="16" viewBox="0 0 16 16" fill="none" xmlns="http://www.w3.org/2000/svg">
<path fill-rule="evenodd" clip-rule="evenodd" d="M7.80452 2.86219C7.9295 2.98722 7.99972 3.15676 7.99972 3.33355C7.99972 3.51033 7.9295 3.67988 7.80452 3.80491L4.27586 7.33375H13.3332C13.51 7.33375 13.6796 7.40399 13.8046 7.52902C13.9296 7.65405 13.9999 7.82363 13.9999 8.00045C13.9999 8.17727 13.9296 8.34684 13.8046 8.47188C13.6796 8.59691 13.51 8.66715 13.3332 8.66715H4.27586L7.80452 12.196C7.92596 12.3217 7.99316 12.4901 7.99164 12.6649C7.99012 12.8398 7.92001 13.007 7.7964 13.1306C7.6728 13.2542 7.50559 13.3243 7.33079 13.3258C7.15599 13.3273 6.98759 13.2601 6.86186 13.1387L2.19519 8.4718C2.07021 8.34678 2 8.17723 2 8.00045C2 7.82366 2.07021 7.65412 2.19519 7.52909L6.86186 2.86219C6.98688 2.73721 7.15641 2.66699 7.33319 2.66699C7.50997 2.66699 7.67951 2.73721 7.80452 2.86219Z" fill="#B09676"/>
</svg>
