<svg width="16" height="16" viewBox="0 0 16 16" fill="none" xmlns="http://www.w3.org/2000/svg">
<path fill-rule="evenodd" clip-rule="evenodd" d="M8.19533 2.86219C8.32035 2.73721 8.48989 2.66699 8.66667 2.66699C8.84344 2.66699 9.01298 2.73721 9.138 2.86219L13.8047 7.52909C13.9296 7.65412 13.9999 7.82366 13.9999 8.00045C13.9999 8.17723 13.9296 8.34678 13.8047 8.4718L9.138 13.1387C9.01227 13.2601 8.84386 13.3273 8.66907 13.3258C8.49427 13.3243 8.32706 13.2542 8.20345 13.1306C8.07985 13.007 8.00974 12.8398 8.00822 12.6649C8.0067 12.4901 8.07389 12.3217 8.19533 12.196L11.724 8.66715H2.66667C2.48986 8.66715 2.32029 8.59691 2.19526 8.47188C2.07024 8.34684 2 8.17727 2 8.00045C2 7.82363 2.07024 7.65405 2.19526 7.52902C2.32029 7.40399 2.48986 7.33375 2.66667 7.33375H11.724L8.19533 3.80491C8.07035 3.67988 8.00014 3.51033 8.00014 3.33355C8.00014 3.15676 8.07035 2.98722 8.19533 2.86219Z" fill="#B09676"/>
</svg>
